<svg width="30" height="31" viewBox="0 0 30 31" fill="none" xmlns="http://www.w3.org/2000/svg">
<g clip-path="url(#clip0_0_304)">
<path d="M30 9.34203V7.58422H26.3102V4.18977H22.9157V0.5H21.1579V4.18977H19.3973V0.5H17.6395V4.18977H15.8789V0.5H14.1211V4.18977H12.3605V0.5H10.6027V4.18977H8.84203V0.5H7.08422V4.18977H3.68977V7.58422H0V9.34203H3.68977V11.1027H0V12.8605H3.68977V14.6211H0V16.3789H3.68977V18.1395H0V19.8973H3.68977V21.658H0V23.4158H3.68977V26.8102H7.08422V30.5H8.84203V26.8102H10.6027V30.5H12.3605V26.8102H14.1211V30.5H15.8789V26.8102H17.6395V30.5H19.3973V26.8102H21.158V30.5H22.9158V26.8102H26.3103V23.4158H30V21.658H26.3102V19.8973H30V18.1395H26.3102V16.3789H30V14.6211H26.3102V12.8605H30V11.1027H26.3102V9.34203H30ZM24.5524 25.0524H5.44758V5.94758H24.5524V25.0524Z" fill="#BAC8CF"/>
<path d="M7.20538 7.70538V23.2946H22.7946V7.70538H7.20538ZM21.0368 21.5368H8.9632V9.4632H21.0368V21.5368Z" fill="#BAC8CF"/>
</g>
<defs>
<clipPath id="clip0_0_304">
<rect width="30" height="30" fill="white" transform="translate(0 0.5)"/>
</clipPath>
</defs>
</svg>
