<svg width="18" height="19" viewBox="0 0 18 19" fill="none" xmlns="http://www.w3.org/2000/svg">
  <circle cx="9" cy="9.5" r="8.5" stroke="#BAC8CF" />
  <path d="M9.86942 5.5L9.71707 11.1016H8.28738L8.13113 5.5H9.86942ZM9.00223 13.6016C8.74442 13.6016 8.52306 13.5104 8.33817 13.3281C8.15327 13.1432 8.06212 12.9219 8.06473 12.6641C8.06212 12.4089 8.15327 12.1901 8.33817 12.0078C8.52306 11.8255 8.74442 11.7344 9.00223 11.7344C9.24962 11.7344 9.46707 11.8255 9.65457 12.0078C9.84207 12.1901 9.93712 12.4089 9.93973 12.6641C9.93712 12.8359 9.89155 12.9935 9.80301 13.1367C9.71707 13.2773 9.60379 13.3906 9.46317 13.4766C9.32254 13.5599 9.16889 13.6016 9.00223 13.6016Z" fill="#BAC8CF" />
</svg>
